<?xml version="1.0" encoding="utf-8"?>
<svg width="744" height="1133" viewBox="0 0 744 1133" fill="none" stroke="none" version="1.1" xmlns:xlink="http://www.w3.org/1999/xlink" xmlns="http://www.w3.org/2000/svg">
  <defs>
    <linearGradient id="gradient_1" gradientUnits="userSpaceOnUse" x1="372" y1="0" x2="372" y2="1133">
      <stop offset="0.131" stop-color="#F84100" />
      <stop offset="1" stop-color="#F9D213" />
    </linearGradient>
    <path id="path_2" d="M744 0L744 0L744 1133L0 1133L0 0L744 0Z" />
    <rect id="rect_3" x="0" y="0" width="744" height="1133" />
    <clipPath id="clip_path_4">
      <use xlink:href="#rect_3" />
    </clipPath>
  </defs>
  <g id="iPad Mini 8.3&quot;" opacity="1" clip-path="url(#clip_path_4)">
    <g>
      <use xlink:href="#path_2" style="fill:url(#gradient_1);fill-rule:evenodd;mix-blend-mode:normal;" />
      <g>
        <g style="mix-blend-mode:normal;" transform="translate(102 485)">
          <path d="M84.288 41.664Q83.616 57.888 83.616 76.512Q83.616 95.136 84.288 111.36L61.728 111.36L61.728 85.248L26.4 85.248L26.4 111.36L3.84 111.36Q4.608 92.736 4.608 76.512Q4.608 60.288 3.84 41.664L26.4 41.664L26.4 67.776L61.728 67.776L61.728 41.664L84.288 41.664ZM142.752 87.36L111.456 87.36Q112.224 91.584 115.248 94.224Q118.272 96.864 123.84 96.864Q127.872 96.864 131.424 95.28Q134.976 93.696 137.088 90.816Q143.52 93.984 154.176 97.632Q151.2 104.352 143.376 108.336Q135.552 112.32 122.976 112.32Q106.656 112.32 98.832 104.784Q91.008 97.248 91.008 84.96Q91.008 72.96 98.784 65.472Q106.56 57.984 122.976 57.984Q132.768 57.984 139.968 61.248Q147.168 64.512 151.008 70.32Q154.848 76.128 154.848 83.616Q154.848 86.112 154.656 87.36L142.752 87.36ZM124.32 72.48Q119.52 72.48 116.448 74.304Q113.376 76.128 112.128 79.296L134.784 79.296Q133.632 76.224 131.04 74.352Q128.448 72.48 124.32 72.48ZM219.84 76.992Q205.44 76.608 198.912 76.512L198.912 111.36L178.56 111.36L178.56 76.512Q172.128 76.608 157.728 76.992L157.728 58.944L219.84 58.944L219.84 76.992Z" transform="translate(160.512 -29.004)" style="fill:#000000;" />
          <path d="M52.896 86.304Q57.216 89.76 59.52 94.08Q61.824 98.4 63.84 104.448Q65.856 109.728 66.72 111.36L43.584 111.36Q43.296 110.688 42.432 107.136Q41.664 103.584 40.896 101.424Q40.128 99.264 38.592 97.632Q36.192 95.04 33.216 94.272Q30.24 93.504 24.384 93.504L24.384 111.36L3.84 111.36Q4.32 100.416 4.32 85.152Q4.32 69.888 3.84 58.944L24.384 58.944L24.384 77.76L24.768 77.76Q36.192 66.336 41.376 58.944L66.72 58.944L44.256 81.312Q49.248 83.424 52.896 86.304ZM132.096 95.424Q132.096 98.688 132.864 100.032Q133.632 101.376 135.936 101.952L135.552 110.976Q132.48 111.456 130.224 111.648Q127.968 111.84 124.224 111.84Q115.968 111.84 113.28 108.144Q110.592 104.448 110.592 98.688L110.592 96.288Q107.808 104.16 102.48 108Q97.152 111.84 88.896 111.84Q79.296 111.84 74.448 108Q69.6 104.16 69.6 96.576Q69.6 90.336 73.728 86.784Q77.856 83.232 86.496 81.888Q79.2 76.704 71.904 72.864Q77.664 65.568 85.056 61.776Q92.448 57.984 103.008 57.984Q117.792 57.984 124.944 64.368Q132.096 70.752 132.096 84L132.096 95.424ZM105.024 74.88Q100.128 74.88 96.384 76.512Q92.64 78.144 89.664 81.408Q95.424 80.736 104.064 80.736Q107.616 80.736 109.056 79.872Q110.496 79.008 110.496 77.664Q110.496 76.512 109.056 75.696Q107.616 74.88 105.024 74.88ZM94.944 96.192Q100.32 96.192 104.64 94.128Q108.96 92.064 110.592 88.704L110.592 86.208Q108.288 87.36 105.504 87.984Q102.72 88.608 98.784 89.184L95.328 89.76Q89.952 90.816 89.952 93.408Q89.952 96.192 94.944 96.192ZM183.648 57.984Q189.888 57.984 194.88 61.536Q199.872 65.088 202.656 71.184Q205.44 77.28 205.44 84.576Q205.44 91.776 202.656 98.16Q199.872 104.544 194.832 108.432Q189.792 112.32 183.36 112.32Q175.872 112.32 170.544 109.2Q165.216 106.08 162.624 99.552Q162.624 105.024 163.008 117.12Q163.392 128.832 163.392 133.632L141.696 133.632Q142.272 115.776 142.272 96.288Q142.272 76.8 141.696 58.944L160.128 58.944L162.912 70.944Q165.6 64.224 170.976 61.104Q176.352 57.984 183.648 57.984ZM173.376 95.04Q177.696 95.04 180.624 92.304Q183.552 89.568 183.552 85.152Q183.552 80.256 180.864 77.184Q178.176 74.112 173.568 74.112Q168.288 74.112 165.6 76.656Q162.912 79.2 162.912 85.152Q162.912 88.512 164.64 90.768Q166.368 93.024 168.768 94.032Q171.168 95.04 173.376 95.04ZM270.432 76.992Q256.032 76.608 249.504 76.512L249.504 111.36L229.152 111.36L229.152 76.512Q222.72 76.608 208.32 76.992L208.32 58.944L270.432 58.944L270.432 76.992ZM334.368 58.944Q333.888 72.864 333.888 84.096Q333.888 95.136 334.368 109.248L314.688 109.248L315.744 76.032L301.056 109.248L274.272 109.248Q274.848 96.576 274.848 84.096Q274.848 71.424 274.272 58.944L293.184 58.944L292.224 93.024L306.912 58.944L334.368 58.944ZM402.528 58.944Q402.048 73.536 402.048 85.152Q402.048 96.768 402.528 111.36L381.696 111.36L381.696 93.888L362.88 93.888L362.88 111.36L342.048 111.36Q342.528 100.416 342.528 85.152Q342.528 69.888 342.048 58.944L362.88 58.944L362.88 76.416L381.696 76.416L381.696 58.944L402.528 58.944ZM459.264 86.304Q463.584 89.76 465.888 94.08Q468.192 98.4 470.208 104.448Q472.224 109.728 473.088 111.36L449.952 111.36Q449.664 110.688 448.8 107.136Q448.032 103.584 447.264 101.424Q446.496 99.264 444.96 97.632Q442.56 95.04 439.584 94.272Q436.608 93.504 430.752 93.504L430.752 111.36L410.208 111.36Q410.688 100.416 410.688 85.152Q410.688 69.888 410.208 58.944L430.752 58.944L430.752 77.76L431.136 77.76Q442.56 66.336 447.744 58.944L473.088 58.944L450.624 81.312Q455.616 83.424 459.264 86.304ZM537.024 58.944Q536.544 72.864 536.544 84.096Q536.544 95.136 537.024 109.248L517.344 109.248L518.4 76.032L503.712 109.248L476.928 109.248Q477.504 96.576 477.504 84.096Q477.504 71.424 476.928 58.944L495.84 58.944L494.88 93.024L509.568 58.944L537.024 58.944Z" transform="translate(0 51.996)" style="fill:#000000;" />
        </g>
      </g>
    </g>
  </g>
</svg>